<svg width="400" height="512" viewBox="0 0 400 512" fill="none" xmlns="http://www.w3.org/2000/svg">
<path d="M293.732 0V497.666L245.865 463.09L146.924 391.619L47.982 463.09L0.11499 497.666V0H293.732Z" fill="url(#paint0_linear_204_524)"/>
<path d="M293.732 0V497.666L245.865 463.09L146.924 391.619V0H293.732Z" fill="black" fill-opacity="0.25"/>
<path d="M236.991 61.3571H57.968V92.7041H236.991V61.3571Z" fill="white"/>
<path d="M236.991 120.697H57.968V152.044H236.991V120.697Z" fill="white"/>
<path d="M236.992 61.3571H146.921V92.7041H236.992V61.3571Z" fill="#D9D8DB"/>
<path d="M236.992 120.697H146.921V152.044H236.992V120.697Z" fill="#D9D8DB"/>
<path d="M399.885 406.601C399.885 464.812 352.697 512 294.486 512C294.235 512 293.984 512 293.734 511.99C265.26 511.802 239.483 500.308 220.633 481.782C203.706 465.147 192.368 442.849 189.704 417.938C189.307 414.218 189.088 410.436 189.088 406.601C189.088 375.014 202.996 346.676 225.001 327.356C225.241 327.147 225.482 326.938 225.722 326.74C234.301 319.342 244.091 313.313 254.739 308.966C266.787 304.065 279.942 301.307 293.735 301.223C293.986 301.213 294.237 301.213 294.487 301.213C352.697 301.212 399.885 348.389 399.885 406.601Z" fill="#FFC107"/>
<path d="M399.885 406.601C399.885 464.812 352.697 512 294.486 512C294.235 512 293.984 512 293.734 511.99V301.222C293.985 301.212 294.236 301.212 294.486 301.212C352.697 301.212 399.885 348.389 399.885 406.601Z" fill="black" fill-opacity="0.25"/>
<path d="M315.902 407.63L344.041 435.759L321.868 457.932L293.74 429.792L264.138 459.394L241.975 437.222L271.567 407.63L243.438 379.491L265.601 357.328L293.729 385.447L293.74 385.457L323.331 355.865L345.494 378.038L315.902 407.63Z" fill="#DC3545"/>
<path d="M315.902 407.63L344.041 435.759L321.868 457.932L293.74 429.792L293.729 429.803V385.447L293.74 385.457L323.331 355.865L345.494 378.038L315.902 407.63Z" fill="black" fill-opacity="0.25"/>
<defs>
<linearGradient id="paint0_linear_204_524" x1="-7.54566e-06" y1="3.20011e-06" x2="294" y2="498" gradientUnits="userSpaceOnUse">
<stop stop-color="#6603A0"/>
<stop offset="1" stop-color="#2AEEFA"/>
</linearGradient>
</defs>
</svg>
