<svg width="400" height="512" viewBox="0 0 400 512" fill="none" xmlns="http://www.w3.org/2000/svg">
<path d="M293.733 0V497.664L245.866 463.088L146.924 391.617L47.983 463.088L0.115967 497.664V0H293.733Z" fill="url(#paint0_linear_204_538)"/>
<path d="M293.733 0V497.664L245.866 463.088L146.924 391.617V0H293.733Z" fill="black" fill-opacity="0.25"/>
<path d="M236.999 61.356H57.9771V92.703H236.999V61.356Z" fill="white"/>
<path d="M236.999 120.696H57.9771V152.043H236.999V120.696Z" fill="white"/>
<path d="M237 61.356H146.93V92.703H237V61.356Z" fill="#D9D8DB"/>
<path d="M237 120.696H146.93V152.043H237V120.696Z" fill="#D9D8DB"/>
<path d="M399.884 406.601C399.884 464.812 352.696 512 294.485 512C294.234 512 293.983 512 293.733 511.99C265.26 511.802 239.482 500.308 220.632 481.782C203.705 465.147 192.367 442.849 189.703 417.939C189.306 414.219 189.087 410.437 189.087 406.602C189.087 375.015 202.995 346.677 225 327.357C225.24 327.148 225.481 326.939 225.721 326.741C234.3 319.343 244.09 313.314 254.738 308.967C266.786 304.066 279.941 301.308 293.734 301.224C293.985 301.214 294.236 301.214 294.486 301.214C352.696 301.213 399.884 348.39 399.884 406.601Z" fill="#28A745"/>
<path d="M399.884 406.601C399.884 464.812 352.696 512 294.485 512C294.234 512 293.983 512 293.733 511.99V301.223C293.984 301.213 294.235 301.213 294.485 301.213C352.696 301.213 399.884 348.39 399.884 406.601Z" fill="black" fill-opacity="0.25"/>
<path d="M321.716 418.988L328.299 457.367L293.828 439.249L293.734 439.301L259.367 457.367L265.95 418.988L238.072 391.811L276.597 386.21L293.734 351.488L293.828 351.3L311.068 386.21L349.594 391.811L321.716 418.988Z" fill="#FFDF00"/>
<path d="M321.716 418.988L328.299 457.367L293.828 439.249L293.734 439.301V351.488L293.828 351.3L311.068 386.21L349.594 391.811L321.716 418.988Z" fill="black" fill-opacity="0.25"/>
<defs>
<linearGradient id="paint0_linear_204_538" x1="-1.02425e-06" y1="9.88578e-07" x2="294" y2="498" gradientUnits="userSpaceOnUse">
<stop stop-color="#6603A0"/>
<stop offset="1" stop-color="#2AEEFA"/>
</linearGradient>
</defs>
</svg>
