<svg width="400" height="512" viewBox="0 0 400 512" fill="none" xmlns="http://www.w3.org/2000/svg">
<path d="M293.734 0V497.664L245.867 463.088L146.925 391.617L47.9839 463.088L0.116943 497.664V0H293.734Z" fill="url(#paint0_linear_204_551)"/>
<path d="M293.734 0V497.664L245.867 463.088L146.925 391.617V0H293.734Z" fill="black" fill-opacity="0.25"/>
<path d="M236.999 61.356H57.9771V92.703H236.999V61.356Z" fill="white"/>
<path d="M236.999 120.696H57.9771V152.043H236.999V120.696Z" fill="white"/>
<path d="M237 61.356H146.93V92.703H237V61.356Z" fill="#D9D8DB"/>
<path d="M237 120.696H146.93V152.043H237V120.696Z" fill="#D9D8DB"/>
<path d="M399.883 406.601C399.883 464.812 352.695 512 294.484 512C294.233 512 293.982 512 293.732 511.99C265.259 511.802 239.481 500.308 220.631 481.782C203.704 465.147 192.367 442.849 189.702 417.939C189.305 414.219 189.086 410.437 189.086 406.602C189.086 375.015 202.994 346.677 224.999 327.357C225.239 327.148 225.48 326.939 225.72 326.741C234.299 319.343 244.089 313.314 254.737 308.967C266.785 304.066 279.94 301.308 293.733 301.224C293.984 301.214 294.235 301.214 294.485 301.214C352.695 301.213 399.883 348.39 399.883 406.601Z" fill="white"/>
<path d="M399.883 406.601C399.883 464.812 352.695 512 294.484 512C294.233 512 293.982 512 293.732 511.99V301.223C293.983 301.213 294.234 301.213 294.484 301.213C352.695 301.213 399.883 348.39 399.883 406.601Z" fill="black" fill-opacity="0.25"/>
<path d="M349.947 391.952V423.299H310.157V465.157H278.81V423.299H239.021V391.952H278.81V350.103H310.157V391.952H349.947Z" fill="#28A745"/>
<path d="M349.947 391.952V423.299H310.157V465.157H293.732V350.103H310.157V391.952H349.947Z" fill="black" fill-opacity="0.25"/>
<defs>
<linearGradient id="paint0_linear_204_551" x1="-4.03931e-06" y1="1.8417e-06" x2="294" y2="498" gradientUnits="userSpaceOnUse">
<stop stop-color="#6603A0"/>
<stop offset="1" stop-color="#2AEEFA"/>
</linearGradient>
</defs>
</svg>
