<svg width="552" height="798" viewBox="0 0 552 798" fill="none" xmlns="http://www.w3.org/2000/svg">
<circle cx="542.5" cy="405.343" r="8" stroke="#E8C5B0" stroke-width="3"/>
<circle cx="13" cy="75.843" r="11.5" stroke="#E8C5B0" stroke-width="3"/>
<circle cx="56.5" cy="765.343" r="31" stroke="#E8C5B0" stroke-width="3"/>
<path fill-rule="evenodd" clip-rule="evenodd" d="M286.68 6.9894C286.536 6.54626 286.464 6.32469 286.48 6.1264C286.501 5.862 286.626 5.61669 286.828 5.44445C286.979 5.31527 287.2 5.24328 287.643 5.09929C288.087 4.95531 288.308 4.88332 288.506 4.89892C288.771 4.91973 289.016 5.04472 289.188 5.24639C289.318 5.39765 289.39 5.61922 289.534 6.06235L292.778 16.0482L289.925 16.9752L286.68 6.9894ZM287.357 22.0158L277.371 25.2604C276.928 25.4044 276.706 25.4764 276.555 25.6056C276.353 25.7778 276.228 26.0231 276.207 26.2875C276.192 26.4858 276.264 26.7074 276.408 27.1505C276.552 27.5937 276.624 27.8152 276.753 27.9665C276.925 28.1682 277.17 28.2932 277.435 28.314C277.633 28.3296 277.855 28.2576 278.298 28.1136L288.284 24.8689L287.357 22.0158ZM293.015 26.4858L296.26 36.4721C296.404 36.9153 296.476 37.1368 296.605 37.2881C296.777 37.4898 297.023 37.6148 297.287 37.6356C297.485 37.6512 297.707 37.5792 298.15 37.4352C298.593 37.2912 298.815 37.2192 298.966 37.09C299.168 36.9178 299.293 36.6725 299.314 36.4081C299.329 36.2098 299.257 35.9882 299.113 35.5451L295.868 25.5587L293.015 26.4858ZM297.795 21.7788L307.781 18.5341C308.224 18.3901 308.445 18.3181 308.597 18.189C308.798 18.0167 308.923 17.7714 308.944 17.507C308.96 17.3087 308.888 17.0872 308.744 16.644C308.6 16.2009 308.528 15.9793 308.399 15.8281C308.226 15.6264 307.981 15.5014 307.717 15.4806C307.518 15.465 307.297 15.537 306.854 15.681L296.868 18.9256L297.795 21.7788Z" fill="#E8C5B0"/>
<path fill-rule="evenodd" clip-rule="evenodd" d="M295.708 709.772C295.888 709.25 296.457 708.972 296.979 709.152C297.501 709.332 297.779 709.901 297.599 710.423L294.994 717.987L293.103 717.336L295.708 709.772ZM288.991 719.342L281.427 716.737C280.905 716.558 280.336 716.835 280.156 717.357C279.976 717.88 280.253 718.449 280.776 718.628L288.34 721.233L288.991 719.342ZM290.499 724.9L287.894 732.464C287.714 732.987 287.992 733.556 288.514 733.735C289.036 733.915 289.605 733.638 289.785 733.116L292.39 725.551L290.499 724.9ZM295.904 723.837L303.468 726.442C303.99 726.622 304.559 726.344 304.739 725.822C304.919 725.3 304.642 724.731 304.119 724.551L296.555 721.946L295.904 723.837Z" fill="#E8C5B0"/>
</svg>
