<svg width="231" height="938" viewBox="0 0 231 938" fill="none" xmlns="http://www.w3.org/2000/svg">
<circle cx="32.5" cy="32.5" r="31" stroke="#00CEC9" stroke-width="3"/>
<path fill-rule="evenodd" clip-rule="evenodd" d="M129.68 236.988C129.536 236.545 129.464 236.324 129.48 236.125C129.501 235.861 129.626 235.616 129.827 235.443C129.979 235.314 130.2 235.242 130.643 235.098L130.643 235.098C131.086 234.954 131.308 234.882 131.506 234.898C131.771 234.919 132.016 235.044 132.188 235.245C132.317 235.396 132.389 235.618 132.533 236.061L132.533 236.061L135.778 246.047L132.925 246.974L129.68 236.988L129.68 236.988ZM130.357 252.014L120.371 255.259L120.371 255.259L120.371 255.259C119.928 255.403 119.706 255.475 119.555 255.604C119.353 255.776 119.228 256.022 119.207 256.286C119.192 256.484 119.264 256.706 119.408 257.149C119.552 257.592 119.624 257.814 119.753 257.965C119.925 258.167 120.17 258.292 120.435 258.312C120.633 258.328 120.855 258.256 121.298 258.112L131.284 254.867L130.357 252.014ZM136.015 256.484L139.26 266.471C139.404 266.914 139.476 267.136 139.605 267.287C139.777 267.489 140.023 267.614 140.287 267.634C140.485 267.65 140.707 267.578 141.15 267.434L141.15 267.434C141.593 267.29 141.815 267.218 141.966 267.089C142.168 266.917 142.293 266.671 142.313 266.407C142.329 266.209 142.257 265.987 142.113 265.544L138.868 255.557L136.015 256.484ZM140.795 251.777L150.781 248.533C151.224 248.389 151.445 248.317 151.597 248.188C151.798 248.015 151.923 247.77 151.944 247.506C151.96 247.307 151.888 247.086 151.744 246.643L151.744 246.643C151.6 246.2 151.528 245.978 151.399 245.827C151.226 245.625 150.981 245.5 150.717 245.479C150.518 245.464 150.297 245.536 149.854 245.68L139.868 248.924L140.795 251.777Z" fill="#00CEC9"/>
<path d="M229.057 483.965C229.057 483.965 204.642 481.253 182.59 466.094C160.538 450.934 149.321 426.484 149.321 426.484" stroke="#00CEC9" stroke-width="2" stroke-linecap="square"/>
<path d="M229.196 483.891C229.196 483.891 222.559 485.6 218.433 488.261C214.307 490.922 213.083 493.959 213.083 493.959" stroke="#00CEC9" stroke-width="2" stroke-linecap="square"/>
<path d="M229.316 484.625C229.316 484.625 223.701 479.414 221.814 476.395C219.928 473.376 218.311 469.097 218.311 469.097" stroke="#00CEC9" stroke-width="2" stroke-linecap="square"/>
<circle cx="9.5" cy="748.5" r="8" stroke="#E8C5B0" stroke-width="3"/>
<path fill-rule="evenodd" clip-rule="evenodd" d="M199.708 908.929C199.888 908.407 200.457 908.129 200.979 908.309C201.501 908.489 201.779 909.058 201.599 909.58L198.994 917.144L197.103 916.493L199.708 908.929ZM192.991 918.499L185.427 915.894C184.905 915.715 184.336 915.992 184.156 916.514C183.976 917.037 184.253 917.606 184.776 917.785L192.34 920.39L192.991 918.499ZM194.499 924.057L191.894 931.621C191.714 932.144 191.992 932.713 192.514 932.892C193.036 933.072 193.605 932.795 193.785 932.273L196.39 924.708L194.499 924.057ZM199.904 922.994L207.468 925.599C207.99 925.779 208.56 925.501 208.739 924.979C208.919 924.457 208.642 923.888 208.119 923.708L200.555 921.103L199.904 922.994Z" fill="#E8C5B0"/>
</svg>
