<svg width="345" height="148" viewBox="0 0 345 148" fill="none" xmlns="http://www.w3.org/2000/svg">
<rect x="73.761" width="104.503" height="104.312" rx="23.4" transform="rotate(44.9216 73.761 0)" fill="white"/>
<path d="M34.4471 73.5212C34.4471 51.529 52.2739 33.702 74.2658 33.702C89.7791 33.702 103.22 42.5741 109.794 55.5191C109.889 54.0299 109.943 52.5315 109.943 51.0193C109.943 45.0366 109.172 39.2334 107.729 33.7035L90.8001 16.7715C81.5228 7.49413 66.4777 7.49413 57.1989 16.7715L16.958 57.0144C7.68068 66.2918 7.68068 81.337 16.958 90.6159L45.6418 119.297C54.3695 118.781 62.6566 116.623 70.2021 113.136C50.1185 111.102 34.4471 94.1408 34.4471 73.5212Z" fill="url(#paint0_linear_321_101)" fill-opacity="0.7882"/>
<path d="M65.6104 86.7978H83.2929C83.2929 89.0515 83.6337 91.2254 84.2586 93.2734C91.4633 89.6227 96.4021 82.1507 96.4021 73.5212C96.4021 61.2947 86.4923 51.3848 74.2659 51.3848C62.0395 51.3848 52.1297 61.2947 52.1297 73.5212C52.1297 82.9398 58.0126 90.9783 66.3012 94.1761C65.8529 91.7858 65.6104 89.3187 65.6104 86.7978Z" fill="#090C9B" fill-opacity="0.7882"/>
<path d="M74.2659 33.702C96.2578 33.702 114.086 51.529 114.086 73.5212C114.086 75.408 113.951 77.261 113.699 79.0756C122.476 77.5342 130.57 74.0094 137.5 68.9769C136.592 64.5938 134.443 60.4149 131.039 57.0144L90.8001 16.7715C81.5228 7.49413 66.4778 7.49413 57.1989 16.7715L46.2744 27.6962C46.7457 32.7762 47.8771 37.6644 49.5812 42.2747C56.3684 36.9075 64.9425 33.702 74.2659 33.702Z" fill="url(#paint1_linear_321_101)" fill-opacity="0.7882"/>
<path d="M74.2659 51.3848C68.0651 51.3848 62.4616 53.9378 58.444 58.0476C67.425 69.3991 80.5909 77.2871 95.613 79.3888C96.1257 77.5205 96.4051 75.5538 96.4051 73.5212C96.4021 61.2947 86.4923 51.3848 74.2659 51.3848Z" fill="#00B4D8" fill-opacity="0.7882"/>
<path d="M65.6104 86.7978H83.2929C83.2929 89.0515 83.6337 91.2254 84.2586 93.2734C91.4633 89.6227 96.4021 82.1507 96.4021 73.5212C96.4021 61.2947 86.4923 51.3848 74.2659 51.3848C62.0395 51.3848 52.1297 61.2947 52.1297 73.5212C52.1297 82.9398 58.0126 90.9783 66.3012 94.1761C65.8529 91.7858 65.6104 89.3187 65.6104 86.7978Z" fill="#00FFFF" fill-opacity="0.7882"/>
<path d="M131.041 57.0146L106.837 32.8087C106.772 32.8087 106.71 32.8071 106.647 32.8071C99.8226 32.8071 93.2442 33.8588 87.0634 35.8024C102.778 41.1327 114.086 56.0075 114.086 73.5213C114.086 87.4689 106.914 99.7415 96.0567 106.853C98.9045 108.187 102.078 108.934 105.431 108.934C108.779 108.934 111.952 108.188 114.799 106.857L131.04 90.6161C140.32 81.3372 140.32 66.292 131.041 57.0146Z" fill="url(#paint2_linear_321_101)" fill-opacity="0.7882"/>
<path d="M96.1334 125.523C88.1165 123.605 81.05 119.259 75.7351 113.311C75.2469 113.328 74.7587 113.342 74.2659 113.342C60.6869 113.342 48.6985 106.543 41.5106 96.1675C41.4937 96.7662 41.4861 97.365 41.4861 97.9668C41.4861 105.112 42.639 111.986 44.7637 118.421L57.1989 130.854C66.4762 140.133 81.5197 140.133 90.8001 130.854L96.1334 125.523Z" fill="url(#paint3_linear_321_101)" fill-opacity="0.7882"/>
<path d="M102.187 108.696C109.531 101.472 114.088 91.422 114.088 80.3069C114.088 79.1632 114.037 78.0332 113.943 76.9141C112.884 89.4461 106.025 100.323 96.0597 106.854C97.968 107.748 100.025 108.379 102.187 108.696Z" fill="#4A4949" fill-opacity="0.2392"/>
<path d="M75.7351 113.312C75.2469 113.331 74.7587 113.343 74.2659 113.343C53.4254 113.343 36.3293 97.3337 34.5929 76.9429C34.5008 78.0528 34.444 79.1751 34.444 80.3081C34.444 102.3 52.2724 120.129 74.2643 120.129C77.0584 120.129 79.7849 119.839 82.4163 119.292C79.9692 117.553 77.7293 115.545 75.7351 113.312Z" fill="#4A4949" fill-opacity="0.2392"/>
<path d="M74.2659 51.3848C62.0395 51.3848 52.1297 61.2947 52.1297 73.5212C52.1297 74.6757 52.2187 75.8071 52.3876 76.914C54.021 66.2995 63.1939 58.1705 74.2659 58.1705C85.3393 58.1705 94.5122 66.2995 96.1442 76.914C96.313 75.8071 96.4021 74.6757 96.4021 73.5212C96.4021 61.2947 86.4923 51.3848 74.2659 51.3848Z" fill="#4A4949" fill-opacity="0.2392"/>
<path d="M96.1334 125.522C80.2655 121.727 68.0882 108.434 65.9466 91.9854H65.6119C65.6119 109.312 76.6792 124.052 92.1311 129.526L96.1334 125.522Z" fill="#4A4949" fill-opacity="0.2392"/>
<path d="M164.894 96.3632L162.844 93.2644C162.921 93.1333 163.04 92.9783 163.201 92.7876C163.356 92.6089 163.678 92.2692 164.155 91.7626C164.643 91.268 165.12 90.833 165.585 90.4516C166.044 90.0702 166.574 89.7186 167.182 89.4028C167.802 89.0988 168.362 88.9499 168.874 88.9499V88.7592C164.423 87.9189 160.829 85.7259 158.1 82.1801C155.365 78.6403 154 74.4271 154 69.5464C154 64.052 155.824 59.4157 159.483 55.6494C163.153 51.8831 167.593 50 172.807 50C178.064 50 182.509 51.8831 186.132 55.6494C189.756 59.4157 191.567 64.052 191.567 69.5464C191.567 74.0278 190.358 77.9788 187.944 81.3935C185.542 84.8141 182.372 87.1144 178.433 88.3063V88.497C178.624 88.497 179.434 88.64 180.864 88.926C182.295 89.2121 183.439 89.3551 184.297 89.3551C185.453 89.3551 186.502 89.1465 187.443 88.7353C188.397 88.342 189.052 87.9427 189.422 87.5435L189.97 86.8999L192.688 92.7161C192.622 92.8591 192.521 93.0379 192.378 93.2644C192.235 93.5027 191.913 93.908 191.424 94.4801C190.948 95.0641 190.405 95.5885 189.803 96.0533C189.213 96.5122 188.421 96.9234 187.42 97.2929C186.43 97.6564 185.376 97.8411 184.249 97.8411C182.39 97.8411 180.114 97.2452 177.432 96.0533C174.744 94.8615 172.426 94.2655 170.471 94.2655C169.405 94.2655 168.404 94.4384 167.468 94.79C166.544 95.1356 165.883 95.4932 165.489 95.8626L164.894 96.3632ZM163.296 69.5464C163.296 71.0124 163.463 72.3771 163.797 73.6464C164.131 74.9217 164.655 76.0719 165.37 77.1028C166.085 78.1397 167.075 78.9561 168.35 79.558C169.619 80.148 171.103 80.44 172.807 80.44C176.014 80.44 178.397 79.4091 179.959 77.3412C181.514 75.2614 182.295 72.6631 182.295 69.5464C182.295 66.4655 181.496 63.8851 179.911 61.7994C178.32 59.7017 175.954 58.6529 172.807 58.6529C169.691 58.6529 167.325 59.7136 165.704 61.8232C164.095 63.9209 163.296 66.4953 163.296 69.5464Z" fill="url(#paint4_linear_321_101)"/>
<path d="M200.736 64.9692V76.1488C200.736 78.4551 201.082 80.0999 201.785 81.0831C202.482 82.0545 203.668 82.5372 205.337 82.5372C207.017 82.5372 208.209 82.0545 208.912 81.0831C209.627 80.0999 209.985 78.4551 209.985 76.1488V64.9692H218.089V78.1035C218.089 82.0128 217.07 84.8375 215.038 86.5657C213 88.2819 209.77 89.1401 205.337 89.1401C200.915 89.1401 197.691 88.2819 195.659 86.5657C193.638 84.8375 192.631 82.0128 192.631 78.1035V64.9692H200.736Z" fill="url(#paint5_linear_321_101)"/>
<path d="M221.582 51.8829C222.535 50.9294 223.662 50.4526 224.967 50.4526C226.284 50.4526 227.422 50.9294 228.376 51.8829C229.329 52.8244 229.806 53.9507 229.806 55.2677C229.806 56.5907 229.329 57.723 228.376 58.6764C227.422 59.618 226.284 60.0828 224.967 60.0828C223.662 60.0828 222.535 59.618 221.582 58.6764C220.64 57.723 220.176 56.5907 220.176 55.2677C220.176 53.9507 220.64 52.8244 221.582 51.8829ZM220.819 64.9694V88.449H228.924V64.9694H220.819Z" fill="url(#paint6_linear_321_101)"/>
<path d="M264.08 50.6909L245.344 80.8926H262.84V88.4489H230.35L249.015 58.2473H232.996V50.6909H264.08Z" fill="url(#paint7_linear_321_101)"/>
<path d="M267.476 85.6602C264.866 83.3421 263.567 80.3684 263.567 76.7451C263.567 73.11 264.925 70.1184 267.643 67.7824C270.36 65.4463 273.709 64.2783 277.702 64.2783C281.641 64.2783 284.961 65.4583 287.666 67.8062C290.366 70.1601 291.718 73.1398 291.718 76.7451C291.718 80.3386 290.395 83.3003 287.761 85.6364C285.121 87.9724 281.766 89.1404 277.702 89.1404C273.489 89.1404 270.08 87.9843 267.476 85.6602ZM273.745 72.7643C272.696 73.8013 272.172 75.1242 272.172 76.7451C272.172 78.3541 272.673 79.6711 273.674 80.7021C274.687 81.7211 276.022 82.2277 277.678 82.2277C279.252 82.2277 280.545 81.7152 281.564 80.6783C282.595 79.6294 283.113 78.3124 283.113 76.7213C283.113 75.1183 282.589 73.8013 281.54 72.7643C280.491 71.7155 279.204 71.1911 277.678 71.1911C276.117 71.1911 274.806 71.7155 273.745 72.7643Z" fill="url(#paint8_linear_321_101)"/>
<path d="M293.223 88.4492V64.9696H301.328V67.4487H301.423C303.521 65.3391 305.761 64.2783 308.145 64.2783C309.301 64.2783 310.457 64.4392 311.601 64.7551C312.746 65.059 313.842 65.5298 314.891 66.1615C315.952 66.7991 316.81 67.7049 317.465 68.8789C318.115 70.0588 318.443 71.4235 318.443 72.9789V88.4492H310.338V75.1719C310.338 73.9502 309.945 72.8835 309.17 71.9777C308.389 71.06 307.382 70.5952 306.143 70.5952C304.915 70.5952 303.807 71.0719 302.805 72.0254C301.816 72.967 301.328 74.0158 301.328 75.1719V88.4492H293.223Z" fill="url(#paint9_linear_321_101)"/>
<path d="M344.952 77.8416H327.909C327.909 79.4804 328.439 80.6961 329.506 81.4887C330.584 82.2873 331.753 82.6806 333.01 82.6806C334.309 82.6806 335.346 82.5078 336.109 82.1562C336.872 81.8105 337.742 81.1192 338.731 80.0823L344.571 83.0143C342.14 87.1024 338.087 89.1404 332.414 89.1404C328.868 89.1404 325.823 87.9367 323.284 85.5172C320.758 83.0858 319.494 80.1658 319.494 76.7451C319.494 73.3126 320.758 70.3806 323.284 67.9492C325.823 65.5059 328.868 64.2783 332.414 64.2783C336.133 64.2783 339.16 65.3629 341.496 67.5202C343.832 69.6655 345 72.7345 345 76.7213C345 77.2815 344.982 77.6509 344.952 77.8416ZM328.147 73.3364H337.062C336.883 72.1327 336.407 71.203 335.632 70.5475C334.851 69.88 333.85 69.5463 332.629 69.5463C331.294 69.5463 330.227 69.8979 329.434 70.5952C328.636 71.2984 328.207 72.2101 328.147 73.3364Z" fill="url(#paint10_linear_321_101)"/>
<defs>
<linearGradient id="paint0_linear_321_101" x1="10" y1="77.0195" x2="74.8473" y2="85.2728" gradientUnits="userSpaceOnUse">
<stop stop-color="#AB00D2"/>
<stop offset="1" stop-color="#14C2D1"/>
</linearGradient>
<linearGradient id="paint1_linear_321_101" x1="91.887" y1="9.81348" x2="91.887" y2="79.0756" gradientUnits="userSpaceOnUse">
<stop stop-color="#00FFFF"/>
<stop offset="1" stop-color="#14C2D1"/>
</linearGradient>
<linearGradient id="paint2_linear_321_101" x1="112.532" y1="32.8071" x2="112.532" y2="108.934" gradientUnits="userSpaceOnUse">
<stop stop-color="#14C2D1" stop-opacity="0"/>
<stop offset="0.82118" stop-color="#B100DA"/>
</linearGradient>
<linearGradient id="paint3_linear_321_101" x1="11.4738" y1="66.4082" x2="68.8105" y2="137.813" gradientUnits="userSpaceOnUse">
<stop stop-color="#00FFFF"/>
<stop offset="1" stop-color="#14C2D1"/>
</linearGradient>
<linearGradient id="paint4_linear_321_101" x1="161.494" y1="27.5" x2="142.363" y2="37.1292" gradientUnits="userSpaceOnUse">
<stop stop-color="#A83AC2"/>
<stop offset="1" stop-color="#13EFF7"/>
</linearGradient>
<linearGradient id="paint5_linear_321_101" x1="213.5" y1="75.5" x2="206.922" y2="62.465" gradientUnits="userSpaceOnUse">
<stop stop-color="#A83AC2"/>
<stop offset="1" stop-color="#13EFF7"/>
</linearGradient>
<linearGradient id="paint6_linear_321_101" x1="227.5" y1="87" x2="235.965" y2="82.4975" gradientUnits="userSpaceOnUse">
<stop stop-color="#A83AC2"/>
<stop offset="1" stop-color="#13EFF7"/>
</linearGradient>
<linearGradient id="paint7_linear_321_101" x1="263" y1="51" x2="235.907" y2="47.6627" gradientUnits="userSpaceOnUse">
<stop stop-color="#A83AC2"/>
<stop offset="1" stop-color="#13EFF7"/>
</linearGradient>
<linearGradient id="paint8_linear_321_101" x1="284.5" y1="87" x2="286.282" y2="72.5008" gradientUnits="userSpaceOnUse">
<stop stop-color="#A83AC2"/>
<stop offset="1" stop-color="#13EFF7"/>
</linearGradient>
<linearGradient id="paint9_linear_321_101" x1="312" y1="69.5" x2="304.324" y2="68.0226" gradientUnits="userSpaceOnUse">
<stop stop-color="#A83AC2"/>
<stop offset="1" stop-color="#13EFF7"/>
</linearGradient>
<linearGradient id="paint10_linear_321_101" x1="324" y1="69" x2="324.095" y2="83.6201" gradientUnits="userSpaceOnUse">
<stop stop-color="#A83AC2"/>
<stop offset="1" stop-color="#13EFF7"/>
</linearGradient>
</defs>
</svg>
