<svg width="148" height="148" viewBox="0 0 148 148" fill="none" xmlns="http://www.w3.org/2000/svg">
<rect x="73.761" width="104.503" height="104.312" rx="23.4" transform="rotate(44.9216 73.761 0)" fill="white"/>
<path d="M34.4471 73.5212C34.4471 51.529 52.2739 33.702 74.2658 33.702C89.7791 33.702 103.22 42.5741 109.794 55.5191C109.889 54.0299 109.943 52.5315 109.943 51.0193C109.943 45.0366 109.172 39.2334 107.729 33.7035L90.8001 16.7715C81.5228 7.49413 66.4777 7.49413 57.1989 16.7715L16.958 57.0144C7.68068 66.2918 7.68068 81.337 16.958 90.6159L45.6418 119.297C54.3695 118.781 62.6566 116.623 70.2021 113.136C50.1185 111.102 34.4471 94.1408 34.4471 73.5212Z" fill="url(#paint0_linear_318_42)" fill-opacity="0.7882"/>
<path d="M65.6104 86.7978H83.2929C83.2929 89.0515 83.6337 91.2254 84.2586 93.2734C91.4633 89.6227 96.4021 82.1507 96.4021 73.5212C96.4021 61.2947 86.4923 51.3848 74.2659 51.3848C62.0395 51.3848 52.1297 61.2947 52.1297 73.5212C52.1297 82.9398 58.0126 90.9783 66.3012 94.1761C65.8529 91.7858 65.6104 89.3187 65.6104 86.7978Z" fill="#090C9B" fill-opacity="0.7882"/>
<path d="M74.2659 33.702C96.2578 33.702 114.086 51.529 114.086 73.5212C114.086 75.408 113.951 77.261 113.699 79.0756C122.476 77.5342 130.57 74.0094 137.5 68.9769C136.592 64.5938 134.443 60.4149 131.039 57.0144L90.8001 16.7715C81.5228 7.49413 66.4778 7.49413 57.1989 16.7715L46.2744 27.6962C46.7457 32.7762 47.8771 37.6644 49.5812 42.2747C56.3684 36.9075 64.9425 33.702 74.2659 33.702Z" fill="url(#paint1_linear_318_42)" fill-opacity="0.7882"/>
<path d="M74.2659 51.3848C68.0651 51.3848 62.4616 53.9378 58.444 58.0476C67.425 69.3991 80.5909 77.2871 95.613 79.3888C96.1257 77.5205 96.4051 75.5538 96.4051 73.5212C96.4021 61.2947 86.4923 51.3848 74.2659 51.3848Z" fill="#00B4D8" fill-opacity="0.7882"/>
<path d="M65.6104 86.7978H83.2929C83.2929 89.0515 83.6337 91.2254 84.2586 93.2734C91.4633 89.6227 96.4021 82.1507 96.4021 73.5212C96.4021 61.2947 86.4923 51.3848 74.2659 51.3848C62.0395 51.3848 52.1297 61.2947 52.1297 73.5212C52.1297 82.9398 58.0126 90.9783 66.3012 94.1761C65.8529 91.7858 65.6104 89.3187 65.6104 86.7978Z" fill="#00FFFF" fill-opacity="0.7882"/>
<path d="M131.041 57.0146L106.837 32.8087C106.772 32.8087 106.71 32.8071 106.647 32.8071C99.8226 32.8071 93.2442 33.8588 87.0634 35.8024C102.778 41.1327 114.086 56.0075 114.086 73.5213C114.086 87.4689 106.914 99.7415 96.0567 106.853C98.9045 108.187 102.078 108.934 105.431 108.934C108.779 108.934 111.952 108.188 114.799 106.857L131.04 90.6161C140.32 81.3372 140.32 66.292 131.041 57.0146Z" fill="url(#paint2_linear_318_42)" fill-opacity="0.7882"/>
<path d="M96.1334 125.523C88.1165 123.605 81.05 119.259 75.7351 113.311C75.2469 113.328 74.7587 113.342 74.2659 113.342C60.6869 113.342 48.6985 106.543 41.5106 96.1675C41.4937 96.7662 41.4861 97.365 41.4861 97.9668C41.4861 105.112 42.639 111.986 44.7637 118.421L57.1989 130.854C66.4762 140.133 81.5197 140.133 90.8001 130.854L96.1334 125.523Z" fill="url(#paint3_linear_318_42)" fill-opacity="0.7882"/>
<path d="M102.187 108.696C109.531 101.472 114.088 91.422 114.088 80.3069C114.088 79.1632 114.037 78.0332 113.943 76.9141C112.884 89.4461 106.025 100.323 96.0597 106.854C97.968 107.748 100.025 108.379 102.187 108.696Z" fill="#4A4949" fill-opacity="0.2392"/>
<path d="M75.7351 113.312C75.2469 113.331 74.7587 113.343 74.2659 113.343C53.4254 113.343 36.3293 97.3337 34.5929 76.9429C34.5008 78.0528 34.444 79.1751 34.444 80.3081C34.444 102.3 52.2724 120.129 74.2643 120.129C77.0584 120.129 79.7849 119.839 82.4163 119.292C79.9692 117.553 77.7293 115.545 75.7351 113.312Z" fill="#4A4949" fill-opacity="0.2392"/>
<path d="M74.2659 51.3848C62.0395 51.3848 52.1297 61.2947 52.1297 73.5212C52.1297 74.6757 52.2187 75.8071 52.3876 76.914C54.021 66.2995 63.1939 58.1705 74.2659 58.1705C85.3393 58.1705 94.5122 66.2995 96.1442 76.914C96.313 75.8071 96.4021 74.6757 96.4021 73.5212C96.4021 61.2947 86.4923 51.3848 74.2659 51.3848Z" fill="#4A4949" fill-opacity="0.2392"/>
<path d="M96.1334 125.522C80.2655 121.727 68.0882 108.434 65.9466 91.9854H65.6119C65.6119 109.312 76.6792 124.052 92.1311 129.526L96.1334 125.522Z" fill="#4A4949" fill-opacity="0.2392"/>
<defs>
<linearGradient id="paint0_linear_318_42" x1="10" y1="77.0195" x2="74.8473" y2="85.2728" gradientUnits="userSpaceOnUse">
<stop stop-color="#AB00D2"/>
<stop offset="1" stop-color="#14C2D1"/>
</linearGradient>
<linearGradient id="paint1_linear_318_42" x1="91.887" y1="9.81348" x2="91.887" y2="79.0756" gradientUnits="userSpaceOnUse">
<stop stop-color="#00FFFF"/>
<stop offset="1" stop-color="#14C2D1"/>
</linearGradient>
<linearGradient id="paint2_linear_318_42" x1="112.532" y1="32.8071" x2="112.532" y2="108.934" gradientUnits="userSpaceOnUse">
<stop stop-color="#14C2D1" stop-opacity="0"/>
<stop offset="0.82118" stop-color="#B100DA"/>
</linearGradient>
<linearGradient id="paint3_linear_318_42" x1="11.4738" y1="66.4082" x2="68.8105" y2="137.813" gradientUnits="userSpaceOnUse">
<stop stop-color="#00FFFF"/>
<stop offset="1" stop-color="#14C2D1"/>
</linearGradient>
</defs>
</svg>
