<svg width="271" height="1014" viewBox="0 0 271 1014" fill="none" xmlns="http://www.w3.org/2000/svg">
<circle cx="166.5" cy="329.5" r="31" stroke="#FF43EC" stroke-width="3"/>
<path fill-rule="evenodd" clip-rule="evenodd" d="M243.68 6.98893C243.536 6.5458 243.464 6.32424 243.48 6.12594C243.501 5.86154 243.626 5.61624 243.827 5.444C243.979 5.31482 244.2 5.24283 244.643 5.09885L244.643 5.09884C245.086 4.95486 245.308 4.88287 245.506 4.89847C245.771 4.91928 246.016 5.04427 246.188 5.24594C246.317 5.3972 246.389 5.61876 246.533 6.06189L246.533 6.0619L249.778 16.0476L246.925 16.9746L243.68 6.98894L243.68 6.98893ZM244.357 22.015L234.371 25.2596L234.371 25.2596L234.371 25.2596C233.928 25.4036 233.706 25.4756 233.555 25.6048C233.353 25.777 233.228 26.0223 233.207 26.2867C233.192 26.485 233.264 26.7066 233.408 27.1497C233.552 27.5929 233.624 27.8144 233.753 27.9657C233.925 28.1674 234.17 28.2924 234.435 28.3132C234.633 28.3288 234.855 28.2568 235.298 28.1128L245.284 24.8682L244.357 22.015ZM250.015 26.4852L253.26 36.4717C253.404 36.9148 253.476 37.1364 253.605 37.2876C253.777 37.4893 254.023 37.6143 254.287 37.6351C254.485 37.6507 254.707 37.5787 255.15 37.4347L255.15 37.4347C255.593 37.2907 255.815 37.2187 255.966 37.0896C256.168 36.9173 256.293 36.672 256.313 36.4076C256.329 36.2093 256.257 35.9878 256.113 35.5446L252.868 25.5582L250.015 26.4852ZM254.795 21.7781L264.781 18.5336C265.224 18.3896 265.445 18.3176 265.597 18.1884C265.798 18.0162 265.923 17.7709 265.944 17.5065C265.96 17.3082 265.888 17.0866 265.744 16.6435L265.744 16.6435C265.6 16.2003 265.528 15.9788 265.399 15.8275C265.226 15.6258 264.981 15.5008 264.717 15.48C264.518 15.4644 264.297 15.5364 263.854 15.6804L253.868 18.9249L254.795 21.7781Z" fill="#FF43EC"/>
<path d="M2.57654 77.6335C2.57654 77.6335 24.6247 66.8014 51.3682 67.7377C78.1116 68.6741 100.709 83.2681 100.709 83.2681" stroke="#FF43EC" stroke-width="2" stroke-linecap="square"/>
<path d="M2.49887 77.7712C2.49887 77.7712 7.17841 72.7636 9.22825 68.3022C11.2781 63.8407 10.678 60.6218 10.678 60.6218" stroke="#FF43EC" stroke-width="2" stroke-linecap="square"/>
<path d="M2.0036 77.2161C2.0036 77.2161 9.53945 78.5944 12.7523 80.1268C15.9652 81.6591 19.6282 84.3988 19.6282 84.3988" stroke="#FF43EC" stroke-width="2" stroke-linecap="square"/>
<circle cx="61.5" cy="757.5" r="8" stroke="#E8C5B0" stroke-width="3"/>
<path d="M104.651 1011.81C104.651 1011.81 103.6 987.271 115.212 963.162C126.824 939.053 149.274 924.232 149.274 924.232" stroke="#E8C5B0" stroke-width="2" stroke-linecap="square"/>
<path d="M104.746 1011.94C104.746 1011.94 102.043 1005.64 98.7826 1001.97C95.5222 998.3 92.3338 997.555 92.3338 997.555" stroke="#E8C5B0" stroke-width="2" stroke-linecap="square"/>
<path d="M104.039 1012.17C104.039 1012.17 108.331 1005.83 111.026 1003.5C113.721 1001.17 117.703 998.922 117.703 998.922" stroke="#E8C5B0" stroke-width="2" stroke-linecap="square"/>
</svg>
